<mxfile host="app.diagrams.net" modified="2021-04-17T04:07:31.714Z" agent="5.0 (Macintosh)" etag="EkQ1yeMibE4ZD_Mt02bL" version="14.6.1" type="github" pages="4">
  <diagram id="7WC1H01EMD2wXhWHE69z" name="Page-1">
    <mxGraphModel dx="923" dy="696" grid="1" gridSize="10" guides="1" tooltips="1" connect="1" arrows="1" fold="1" page="1" pageScale="1" pageWidth="850" pageHeight="1100" math="0" shadow="0">
      <root>
        <mxCell id="0" />
        <mxCell id="1" parent="0" />
        <mxCell id="Q2LBGbvh6bhoxzF_g_fq-1" value="" style="rounded=0;whiteSpace=wrap;html=1;" parent="1" vertex="1">
          <mxGeometry y="10" width="540" height="470" as="geometry" />
        </mxCell>
        <mxCell id="jqf0XgQ-GhnJZj3z-5wr-4" style="edgeStyle=orthogonalEdgeStyle;rounded=0;orthogonalLoop=1;jettySize=auto;html=1;entryX=0.5;entryY=0;entryDx=0;entryDy=0;entryPerimeter=0;" parent="1" source="jqf0XgQ-GhnJZj3z-5wr-1" target="jqf0XgQ-GhnJZj3z-5wr-2" edge="1">
          <mxGeometry relative="1" as="geometry" />
        </mxCell>
        <mxCell id="jqf0XgQ-GhnJZj3z-5wr-1" value="dashboard" style="aspect=fixed;html=1;points=[];align=center;image;fontSize=12;image=img/lib/azure2/general/Dashboard.svg;" parent="1" vertex="1">
          <mxGeometry x="240" y="50" width="68" height="48" as="geometry" />
        </mxCell>
        <mxCell id="jqf0XgQ-GhnJZj3z-5wr-6" style="edgeStyle=orthogonalEdgeStyle;rounded=0;orthogonalLoop=1;jettySize=auto;html=1;entryX=0.5;entryY=0;entryDx=0;entryDy=0;" parent="1" source="jqf0XgQ-GhnJZj3z-5wr-2" edge="1">
          <mxGeometry relative="1" as="geometry">
            <mxPoint x="430.5" y="200" as="targetPoint" />
          </mxGeometry>
        </mxCell>
        <mxCell id="jqf0XgQ-GhnJZj3z-5wr-7" value="persist jobs" style="edgeLabel;html=1;align=center;verticalAlign=middle;resizable=0;points=[];" parent="jqf0XgQ-GhnJZj3z-5wr-6" vertex="1" connectable="0">
          <mxGeometry x="-0.1238" y="-2" relative="1" as="geometry">
            <mxPoint as="offset" />
          </mxGeometry>
        </mxCell>
        <mxCell id="jqf0XgQ-GhnJZj3z-5wr-14" style="edgeStyle=orthogonalEdgeStyle;rounded=0;orthogonalLoop=1;jettySize=auto;html=1;entryX=0.453;entryY=-0.019;entryDx=0;entryDy=0;entryPerimeter=0;" parent="1" source="jqf0XgQ-GhnJZj3z-5wr-2" target="jqf0XgQ-GhnJZj3z-5wr-13" edge="1">
          <mxGeometry relative="1" as="geometry" />
        </mxCell>
        <mxCell id="7nlgalVnB6iIT5xX1ouN-2" style="edgeStyle=orthogonalEdgeStyle;rounded=0;orthogonalLoop=1;jettySize=auto;html=1;entryX=0.5;entryY=0;entryDx=0;entryDy=0;" parent="1" source="jqf0XgQ-GhnJZj3z-5wr-2" target="7nlgalVnB6iIT5xX1ouN-1" edge="1">
          <mxGeometry relative="1" as="geometry" />
        </mxCell>
        <mxCell id="jqf0XgQ-GhnJZj3z-5wr-2" value="" style="html=1;dashed=0;whitespace=wrap;fillColor=#2875E2;strokeColor=#ffffff;points=[[0.005,0.63,0],[0.1,0.2,0],[0.9,0.2,0],[0.5,0,0],[0.995,0.63,0],[0.72,0.99,0],[0.5,1,0],[0.28,0.99,0]];shape=mxgraph.kubernetes.icon;prIcon=api" parent="1" vertex="1">
          <mxGeometry x="249" y="150" width="50" height="48" as="geometry" />
        </mxCell>
        <mxCell id="F6WWDhhCMoInZN_LFK9o-5" style="edgeStyle=orthogonalEdgeStyle;rounded=0;orthogonalLoop=1;jettySize=auto;html=1;entryX=0;entryY=0;entryDx=50;entryDy=0;entryPerimeter=0;" parent="1" source="jqf0XgQ-GhnJZj3z-5wr-3" target="F6WWDhhCMoInZN_LFK9o-2" edge="1">
          <mxGeometry relative="1" as="geometry" />
        </mxCell>
        <mxCell id="jqf0XgQ-GhnJZj3z-5wr-3" value="Queen Server&lt;br&gt; (API)" style="text;html=1;strokeColor=none;fillColor=none;align=center;verticalAlign=middle;whiteSpace=wrap;rounded=0;" parent="1" vertex="1">
          <mxGeometry x="229" y="200" width="90" height="20" as="geometry" />
        </mxCell>
        <mxCell id="jqf0XgQ-GhnJZj3z-5wr-9" value="database" style="image;html=1;image=img/lib/clip_art/computers/Database_128x128.png" parent="1" vertex="1">
          <mxGeometry x="400" y="198" width="60" height="52" as="geometry" />
        </mxCell>
        <mxCell id="jqf0XgQ-GhnJZj3z-5wr-13" value="messaging server" style="aspect=fixed;html=1;points=[];align=center;image;fontSize=12;image=img/lib/azure2/general/Storage_Queue.svg;" parent="1" vertex="1">
          <mxGeometry x="140" y="198" width="64" height="52" as="geometry" />
        </mxCell>
        <mxCell id="F6WWDhhCMoInZN_LFK9o-1" value="" style="outlineConnect=0;dashed=0;verticalLabelPosition=bottom;verticalAlign=top;align=center;html=1;shape=mxgraph.aws3.worker;fillColor=#D9A741;gradientColor=none;" parent="1" vertex="1">
          <mxGeometry x="250" y="330" width="60" height="63" as="geometry" />
        </mxCell>
        <mxCell id="F6WWDhhCMoInZN_LFK9o-6" style="edgeStyle=orthogonalEdgeStyle;rounded=0;orthogonalLoop=1;jettySize=auto;html=1;entryX=0.4;entryY=0.032;entryDx=0;entryDy=0;entryPerimeter=0;" parent="1" source="F6WWDhhCMoInZN_LFK9o-2" target="F6WWDhhCMoInZN_LFK9o-1" edge="1">
          <mxGeometry relative="1" as="geometry" />
        </mxCell>
        <mxCell id="F6WWDhhCMoInZN_LFK9o-2" value="" style="strokeWidth=1;outlineConnect=0;dashed=0;align=center;html=1;fontSize=8;shape=mxgraph.eip.dataChannel;verticalLabelPosition=bottom;labelBackgroundColor=#ffffff;verticalAlign=top;" parent="1" vertex="1">
          <mxGeometry x="224" y="270" width="100" height="20" as="geometry" />
        </mxCell>
        <mxCell id="F6WWDhhCMoInZN_LFK9o-9" style="edgeStyle=orthogonalEdgeStyle;rounded=0;orthogonalLoop=1;jettySize=auto;html=1;entryX=1.02;entryY=0.5;entryDx=0;entryDy=0;entryPerimeter=0;" parent="1" source="F6WWDhhCMoInZN_LFK9o-4" target="F6WWDhhCMoInZN_LFK9o-8" edge="1">
          <mxGeometry relative="1" as="geometry" />
        </mxCell>
        <mxCell id="wPXiuWuL090zFDefMUM4-5" value="k8&lt;br&gt;executor" style="edgeLabel;html=1;align=center;verticalAlign=middle;resizable=0;points=[];" parent="F6WWDhhCMoInZN_LFK9o-9" vertex="1" connectable="0">
          <mxGeometry x="0.432" y="2" relative="1" as="geometry">
            <mxPoint as="offset" />
          </mxGeometry>
        </mxCell>
        <mxCell id="F6WWDhhCMoInZN_LFK9o-11" style="edgeStyle=orthogonalEdgeStyle;rounded=0;orthogonalLoop=1;jettySize=auto;html=1;entryX=0.98;entryY=0.463;entryDx=0;entryDy=0;entryPerimeter=0;" parent="1" source="F6WWDhhCMoInZN_LFK9o-4" target="F6WWDhhCMoInZN_LFK9o-7" edge="1">
          <mxGeometry relative="1" as="geometry" />
        </mxCell>
        <mxCell id="wPXiuWuL090zFDefMUM4-4" value="docker&lt;br&gt;executor" style="edgeLabel;html=1;align=center;verticalAlign=middle;resizable=0;points=[];" parent="F6WWDhhCMoInZN_LFK9o-11" vertex="1" connectable="0">
          <mxGeometry x="0.3618" y="2" relative="1" as="geometry">
            <mxPoint as="offset" />
          </mxGeometry>
        </mxCell>
        <mxCell id="F6WWDhhCMoInZN_LFK9o-15" style="edgeStyle=orthogonalEdgeStyle;rounded=0;orthogonalLoop=1;jettySize=auto;html=1;" parent="1" source="F6WWDhhCMoInZN_LFK9o-4" target="F6WWDhhCMoInZN_LFK9o-14" edge="1">
          <mxGeometry relative="1" as="geometry" />
        </mxCell>
        <mxCell id="F6WWDhhCMoInZN_LFK9o-16" value="http executor" style="edgeLabel;html=1;align=center;verticalAlign=middle;resizable=0;points=[];" parent="F6WWDhhCMoInZN_LFK9o-15" vertex="1" connectable="0">
          <mxGeometry x="0.0885" y="1" relative="1" as="geometry">
            <mxPoint as="offset" />
          </mxGeometry>
        </mxCell>
        <mxCell id="wPXiuWuL090zFDefMUM4-2" style="edgeStyle=orthogonalEdgeStyle;rounded=0;orthogonalLoop=1;jettySize=auto;html=1;entryX=0.175;entryY=0.5;entryDx=0;entryDy=0;entryPerimeter=0;" parent="1" source="F6WWDhhCMoInZN_LFK9o-4" target="wPXiuWuL090zFDefMUM4-1" edge="1">
          <mxGeometry relative="1" as="geometry" />
        </mxCell>
        <mxCell id="wPXiuWuL090zFDefMUM4-3" value="shell&lt;br&gt;executor" style="edgeLabel;html=1;align=center;verticalAlign=middle;resizable=0;points=[];" parent="wPXiuWuL090zFDefMUM4-2" vertex="1" connectable="0">
          <mxGeometry x="0.4487" y="-2" relative="1" as="geometry">
            <mxPoint as="offset" />
          </mxGeometry>
        </mxCell>
        <mxCell id="F6WWDhhCMoInZN_LFK9o-4" value="ants" style="outlineConnect=0;dashed=0;verticalLabelPosition=bottom;verticalAlign=top;align=center;html=1;shape=mxgraph.aws3.worker;fillColor=#D9A741;gradientColor=none;" parent="1" vertex="1">
          <mxGeometry x="259" y="340" width="60" height="63" as="geometry" />
        </mxCell>
        <mxCell id="F6WWDhhCMoInZN_LFK9o-7" value="" style="aspect=fixed;html=1;points=[];align=center;image;fontSize=12;image=img/lib/mscae/Docker.svg;" parent="1" vertex="1">
          <mxGeometry x="70" y="388" width="50" height="41" as="geometry" />
        </mxCell>
        <mxCell id="F6WWDhhCMoInZN_LFK9o-8" value="" style="html=1;dashed=0;whitespace=wrap;fillColor=#2875E2;strokeColor=#ffffff;points=[[0.005,0.63,0],[0.1,0.2,0],[0.9,0.2,0],[0.5,0,0],[0.995,0.63,0],[0.72,0.99,0],[0.5,1,0],[0.28,0.99,0]];shape=mxgraph.kubernetes.icon;prIcon=pod" parent="1" vertex="1">
          <mxGeometry x="70" y="320" width="50" height="48" as="geometry" />
        </mxCell>
        <mxCell id="F6WWDhhCMoInZN_LFK9o-12" value="Kubernetes Pod" style="text;html=1;strokeColor=none;fillColor=none;align=center;verticalAlign=middle;whiteSpace=wrap;rounded=0;" parent="1" vertex="1">
          <mxGeometry x="40" y="300" width="110" height="20" as="geometry" />
        </mxCell>
        <mxCell id="F6WWDhhCMoInZN_LFK9o-14" value="" style="outlineConnect=0;fontColor=#232F3E;gradientColor=none;fillColor=#277116;strokeColor=none;dashed=0;verticalLabelPosition=bottom;verticalAlign=top;align=center;html=1;fontSize=12;fontStyle=0;aspect=fixed;pointerEvents=1;shape=mxgraph.aws4.http2_protocol;" parent="1" vertex="1">
          <mxGeometry x="420" y="300" width="50" height="50" as="geometry" />
        </mxCell>
        <mxCell id="7nlgalVnB6iIT5xX1ouN-1" value="object-store" style="aspect=fixed;perimeter=ellipsePerimeter;html=1;align=center;shadow=0;dashed=0;fontColor=#4277BB;labelBackgroundColor=#ffffff;fontSize=12;spacingTop=3;image;image=img/lib/ibm/devops/artifact_management.svg;" parent="1" vertex="1">
          <mxGeometry x="20" y="198" width="60" height="60" as="geometry" />
        </mxCell>
        <mxCell id="wPXiuWuL090zFDefMUM4-1" value="shell" style="html=1;fillColor=#5184F3;strokeColor=none;verticalAlign=top;labelPosition=center;verticalLabelPosition=bottom;align=center;spacingTop=-6;fontSize=11;fontStyle=1;fontColor=#999999;shape=mxgraph.gcp2.hexIcon;prIcon=placeholder" parent="1" vertex="1">
          <mxGeometry x="419" y="370.5" width="66" height="58.5" as="geometry" />
        </mxCell>
      </root>
    </mxGraphModel>
  </diagram>
  <diagram id="dKqwYnlvSOG7x6nrOfSr" name="Page-2">
    <mxGraphModel dx="923" dy="696" grid="1" gridSize="10" guides="1" tooltips="1" connect="1" arrows="1" fold="1" page="1" pageScale="1" pageWidth="850" pageHeight="1100" math="0" shadow="0">
      <root>
        <mxCell id="5eIUbQXEE4B5QL4xGmfs-0" />
        <mxCell id="5eIUbQXEE4B5QL4xGmfs-1" parent="5eIUbQXEE4B5QL4xGmfs-0" />
        <mxCell id="mTWpbAFitR0X4Eoo3CnR-0" value="" style="rounded=0;whiteSpace=wrap;html=1;" parent="5eIUbQXEE4B5QL4xGmfs-1" vertex="1">
          <mxGeometry width="640" height="530" as="geometry" />
        </mxCell>
        <mxCell id="ILpvyiX-XjAE5GRcZrV8-3" style="edgeStyle=orthogonalEdgeStyle;rounded=0;orthogonalLoop=1;jettySize=auto;html=1;" parent="5eIUbQXEE4B5QL4xGmfs-1" source="N5RA7qEintvNP8hqb_vg-14" target="ILpvyiX-XjAE5GRcZrV8-0" edge="1">
          <mxGeometry relative="1" as="geometry" />
        </mxCell>
        <mxCell id="Mam_sa4TqZ4yugGMK-YZ-6" style="edgeStyle=orthogonalEdgeStyle;rounded=0;orthogonalLoop=1;jettySize=auto;html=1;entryX=0.08;entryY=0.5;entryDx=0;entryDy=0;entryPerimeter=0;" parent="5eIUbQXEE4B5QL4xGmfs-1" source="N5RA7qEintvNP8hqb_vg-14" target="Mam_sa4TqZ4yugGMK-YZ-5" edge="1">
          <mxGeometry relative="1" as="geometry" />
        </mxCell>
        <mxCell id="7JIedI8BAxYqHqGPbHID-5" style="edgeStyle=orthogonalEdgeStyle;rounded=0;orthogonalLoop=1;jettySize=auto;html=1;entryX=0.333;entryY=0.05;entryDx=0;entryDy=0;entryPerimeter=0;" parent="5eIUbQXEE4B5QL4xGmfs-1" source="N5RA7qEintvNP8hqb_vg-14" target="7JIedI8BAxYqHqGPbHID-0" edge="1">
          <mxGeometry relative="1" as="geometry" />
        </mxCell>
        <mxCell id="N5RA7qEintvNP8hqb_vg-14" value="Job&#xa;Scheduler" style="shape=module;align=left;spacingLeft=20;align=center;verticalAlign=top;" parent="5eIUbQXEE4B5QL4xGmfs-1" vertex="1">
          <mxGeometry x="375" y="30" width="100" height="50" as="geometry" />
        </mxCell>
        <mxCell id="N5RA7qEintvNP8hqb_vg-15" style="edgeStyle=orthogonalEdgeStyle;rounded=0;orthogonalLoop=1;jettySize=auto;html=1;entryX=0.5;entryY=0;entryDx=0;entryDy=0;" parent="5eIUbQXEE4B5QL4xGmfs-1" source="N5RA7qEintvNP8hqb_vg-16" target="N5RA7qEintvNP8hqb_vg-18" edge="1">
          <mxGeometry relative="1" as="geometry" />
        </mxCell>
        <mxCell id="N5RA7qEintvNP8hqb_vg-16" value="Job &#xa;Launcher" style="shape=module;align=left;spacingLeft=20;align=center;verticalAlign=top;" parent="5eIUbQXEE4B5QL4xGmfs-1" vertex="1">
          <mxGeometry x="140" y="30" width="100" height="50" as="geometry" />
        </mxCell>
        <mxCell id="N5RA7qEintvNP8hqb_vg-17" style="edgeStyle=orthogonalEdgeStyle;rounded=0;orthogonalLoop=1;jettySize=auto;html=1;entryX=0;entryY=0.5;entryDx=0;entryDy=0;entryPerimeter=0;" parent="5eIUbQXEE4B5QL4xGmfs-1" source="N5RA7qEintvNP8hqb_vg-18" target="N5RA7qEintvNP8hqb_vg-19" edge="1">
          <mxGeometry relative="1" as="geometry" />
        </mxCell>
        <mxCell id="ILpvyiX-XjAE5GRcZrV8-27" style="edgeStyle=orthogonalEdgeStyle;rounded=0;orthogonalLoop=1;jettySize=auto;html=1;" parent="5eIUbQXEE4B5QL4xGmfs-1" source="N5RA7qEintvNP8hqb_vg-18" target="ILpvyiX-XjAE5GRcZrV8-26" edge="1">
          <mxGeometry relative="1" as="geometry" />
        </mxCell>
        <mxCell id="N5RA7qEintvNP8hqb_vg-18" value="Job &#xa;Supervisor" style="shape=module;align=left;spacingLeft=20;align=center;verticalAlign=top;" parent="5eIUbQXEE4B5QL4xGmfs-1" vertex="1">
          <mxGeometry x="140" y="148.5" width="100" height="50" as="geometry" />
        </mxCell>
        <mxCell id="ILpvyiX-XjAE5GRcZrV8-7" style="edgeStyle=orthogonalEdgeStyle;rounded=0;orthogonalLoop=1;jettySize=auto;html=1;" parent="5eIUbQXEE4B5QL4xGmfs-1" source="N5RA7qEintvNP8hqb_vg-19" target="ILpvyiX-XjAE5GRcZrV8-4" edge="1">
          <mxGeometry relative="1" as="geometry" />
        </mxCell>
        <mxCell id="7JIedI8BAxYqHqGPbHID-6" style="edgeStyle=orthogonalEdgeStyle;rounded=0;orthogonalLoop=1;jettySize=auto;html=1;" parent="5eIUbQXEE4B5QL4xGmfs-1" source="N5RA7qEintvNP8hqb_vg-19" target="7JIedI8BAxYqHqGPbHID-0" edge="1">
          <mxGeometry relative="1" as="geometry" />
        </mxCell>
        <mxCell id="N5RA7qEintvNP8hqb_vg-19" value="Task&#xa;Supervisor" style="shape=module;align=left;spacingLeft=20;align=center;verticalAlign=top;" parent="5eIUbQXEE4B5QL4xGmfs-1" vertex="1">
          <mxGeometry x="280" y="148.5" width="100" height="50" as="geometry" />
        </mxCell>
        <mxCell id="7JIedI8BAxYqHqGPbHID-4" style="edgeStyle=orthogonalEdgeStyle;rounded=0;orthogonalLoop=1;jettySize=auto;html=1;entryX=1;entryY=0.5;entryDx=0;entryDy=0;" parent="5eIUbQXEE4B5QL4xGmfs-1" source="ILpvyiX-XjAE5GRcZrV8-0" target="N5RA7qEintvNP8hqb_vg-16" edge="1">
          <mxGeometry relative="1" as="geometry" />
        </mxCell>
        <mxCell id="ILpvyiX-XjAE5GRcZrV8-0" value="Job queue" style="outlineConnect=0;fontColor=#232F3E;gradientColor=none;strokeColor=#232F3E;fillColor=#ffffff;dashed=0;verticalLabelPosition=bottom;verticalAlign=top;align=center;html=1;fontSize=12;fontStyle=0;aspect=fixed;shape=mxgraph.aws4.resourceIcon;resIcon=mxgraph.aws4.queue;" parent="5eIUbQXEE4B5QL4xGmfs-1" vertex="1">
          <mxGeometry x="280" y="25" width="60" height="60" as="geometry" />
        </mxCell>
        <mxCell id="ILpvyiX-XjAE5GRcZrV8-9" style="edgeStyle=orthogonalEdgeStyle;rounded=0;orthogonalLoop=1;jettySize=auto;html=1;entryX=0.5;entryY=0;entryDx=0;entryDy=0;" parent="5eIUbQXEE4B5QL4xGmfs-1" source="ILpvyiX-XjAE5GRcZrV8-4" target="ILpvyiX-XjAE5GRcZrV8-8" edge="1">
          <mxGeometry relative="1" as="geometry" />
        </mxCell>
        <mxCell id="ILpvyiX-XjAE5GRcZrV8-4" value="Task queue" style="outlineConnect=0;fontColor=#232F3E;gradientColor=none;strokeColor=#232F3E;fillColor=#ffffff;dashed=0;verticalLabelPosition=bottom;verticalAlign=top;align=center;html=1;fontSize=12;fontStyle=0;aspect=fixed;shape=mxgraph.aws4.resourceIcon;resIcon=mxgraph.aws4.queue;" parent="5eIUbQXEE4B5QL4xGmfs-1" vertex="1">
          <mxGeometry x="435" y="143.5" width="60" height="60" as="geometry" />
        </mxCell>
        <mxCell id="ILpvyiX-XjAE5GRcZrV8-12" style="edgeStyle=orthogonalEdgeStyle;rounded=0;orthogonalLoop=1;jettySize=auto;html=1;entryX=0.5;entryY=0;entryDx=0;entryDy=0;" parent="5eIUbQXEE4B5QL4xGmfs-1" source="ILpvyiX-XjAE5GRcZrV8-8" target="ILpvyiX-XjAE5GRcZrV8-10" edge="1">
          <mxGeometry relative="1" as="geometry" />
        </mxCell>
        <mxCell id="ILpvyiX-XjAE5GRcZrV8-14" style="edgeStyle=orthogonalEdgeStyle;rounded=0;orthogonalLoop=1;jettySize=auto;html=1;" parent="5eIUbQXEE4B5QL4xGmfs-1" source="ILpvyiX-XjAE5GRcZrV8-8" target="ILpvyiX-XjAE5GRcZrV8-13" edge="1">
          <mxGeometry relative="1" as="geometry" />
        </mxCell>
        <mxCell id="mTWpbAFitR0X4Eoo3CnR-4" style="edgeStyle=orthogonalEdgeStyle;rounded=0;orthogonalLoop=1;jettySize=auto;html=1;" parent="5eIUbQXEE4B5QL4xGmfs-1" source="ILpvyiX-XjAE5GRcZrV8-8" target="mTWpbAFitR0X4Eoo3CnR-1" edge="1">
          <mxGeometry relative="1" as="geometry" />
        </mxCell>
        <mxCell id="ILpvyiX-XjAE5GRcZrV8-8" value="Ant" style="shape=module;align=left;spacingLeft=20;align=center;verticalAlign=top;" parent="5eIUbQXEE4B5QL4xGmfs-1" vertex="1">
          <mxGeometry x="415" y="258.5" width="100" height="50" as="geometry" />
        </mxCell>
        <mxCell id="ILpvyiX-XjAE5GRcZrV8-23" style="edgeStyle=orthogonalEdgeStyle;rounded=0;orthogonalLoop=1;jettySize=auto;html=1;entryX=0;entryY=0;entryDx=55;entryDy=14;entryPerimeter=0;" parent="5eIUbQXEE4B5QL4xGmfs-1" source="ILpvyiX-XjAE5GRcZrV8-10" target="ILpvyiX-XjAE5GRcZrV8-19" edge="1">
          <mxGeometry relative="1" as="geometry" />
        </mxCell>
        <mxCell id="ILpvyiX-XjAE5GRcZrV8-24" style="edgeStyle=orthogonalEdgeStyle;rounded=0;orthogonalLoop=1;jettySize=auto;html=1;entryX=0.429;entryY=-0.02;entryDx=0;entryDy=0;entryPerimeter=0;" parent="5eIUbQXEE4B5QL4xGmfs-1" source="ILpvyiX-XjAE5GRcZrV8-10" target="ILpvyiX-XjAE5GRcZrV8-20" edge="1">
          <mxGeometry relative="1" as="geometry" />
        </mxCell>
        <mxCell id="ILpvyiX-XjAE5GRcZrV8-25" style="edgeStyle=orthogonalEdgeStyle;rounded=0;orthogonalLoop=1;jettySize=auto;html=1;entryX=0;entryY=0;entryDx=40;entryDy=0;entryPerimeter=0;" parent="5eIUbQXEE4B5QL4xGmfs-1" source="ILpvyiX-XjAE5GRcZrV8-10" target="ILpvyiX-XjAE5GRcZrV8-21" edge="1">
          <mxGeometry relative="1" as="geometry" />
        </mxCell>
        <mxCell id="Mam_sa4TqZ4yugGMK-YZ-1" style="edgeStyle=orthogonalEdgeStyle;rounded=0;orthogonalLoop=1;jettySize=auto;html=1;" parent="5eIUbQXEE4B5QL4xGmfs-1" source="ILpvyiX-XjAE5GRcZrV8-10" edge="1">
          <mxGeometry relative="1" as="geometry">
            <mxPoint x="160" y="420" as="targetPoint" />
          </mxGeometry>
        </mxCell>
        <mxCell id="Mam_sa4TqZ4yugGMK-YZ-2" style="edgeStyle=orthogonalEdgeStyle;rounded=0;orthogonalLoop=1;jettySize=auto;html=1;entryX=0.5;entryY=1;entryDx=0;entryDy=0;" parent="5eIUbQXEE4B5QL4xGmfs-1" source="ILpvyiX-XjAE5GRcZrV8-10" target="Mam_sa4TqZ4yugGMK-YZ-0" edge="1">
          <mxGeometry relative="1" as="geometry" />
        </mxCell>
        <mxCell id="W0qF3PEgjTjVfhSSC40t-1" style="edgeStyle=orthogonalEdgeStyle;rounded=0;orthogonalLoop=1;jettySize=auto;html=1;" parent="5eIUbQXEE4B5QL4xGmfs-1" source="ILpvyiX-XjAE5GRcZrV8-10" target="W0qF3PEgjTjVfhSSC40t-0" edge="1">
          <mxGeometry relative="1" as="geometry" />
        </mxCell>
        <mxCell id="ILpvyiX-XjAE5GRcZrV8-10" value="Executor" style="shape=module;align=left;spacingLeft=20;align=center;verticalAlign=top;" parent="5eIUbQXEE4B5QL4xGmfs-1" vertex="1">
          <mxGeometry x="415" y="350" width="100" height="50" as="geometry" />
        </mxCell>
        <mxCell id="ILpvyiX-XjAE5GRcZrV8-15" style="edgeStyle=orthogonalEdgeStyle;rounded=0;orthogonalLoop=1;jettySize=auto;html=1;entryX=0.5;entryY=1;entryDx=0;entryDy=0;" parent="5eIUbQXEE4B5QL4xGmfs-1" source="ILpvyiX-XjAE5GRcZrV8-13" target="N5RA7qEintvNP8hqb_vg-19" edge="1">
          <mxGeometry relative="1" as="geometry" />
        </mxCell>
        <mxCell id="ILpvyiX-XjAE5GRcZrV8-13" value="Response queue" style="outlineConnect=0;fontColor=#232F3E;gradientColor=none;strokeColor=#232F3E;fillColor=#ffffff;dashed=0;verticalLabelPosition=bottom;verticalAlign=top;align=center;html=1;fontSize=12;fontStyle=0;aspect=fixed;shape=mxgraph.aws4.resourceIcon;resIcon=mxgraph.aws4.queue;" parent="5eIUbQXEE4B5QL4xGmfs-1" vertex="1">
          <mxGeometry x="300" y="253.5" width="60" height="60" as="geometry" />
        </mxCell>
        <mxCell id="ILpvyiX-XjAE5GRcZrV8-18" value="kubernetes" style="shape=folder;fontStyle=1;spacingTop=10;tabWidth=40;tabHeight=14;tabPosition=left;html=1;" parent="5eIUbQXEE4B5QL4xGmfs-1" vertex="1">
          <mxGeometry x="130" y="430" width="70" height="50" as="geometry" />
        </mxCell>
        <mxCell id="ILpvyiX-XjAE5GRcZrV8-19" value="docker" style="shape=folder;fontStyle=1;spacingTop=10;tabWidth=40;tabHeight=14;tabPosition=left;html=1;" parent="5eIUbQXEE4B5QL4xGmfs-1" vertex="1">
          <mxGeometry x="237" y="430" width="70" height="50" as="geometry" />
        </mxCell>
        <mxCell id="ILpvyiX-XjAE5GRcZrV8-20" value="shell" style="shape=folder;fontStyle=1;spacingTop=10;tabWidth=40;tabHeight=14;tabPosition=left;html=1;" parent="5eIUbQXEE4B5QL4xGmfs-1" vertex="1">
          <mxGeometry x="332" y="430" width="70" height="50" as="geometry" />
        </mxCell>
        <mxCell id="ILpvyiX-XjAE5GRcZrV8-21" value="http" style="shape=folder;fontStyle=1;spacingTop=10;tabWidth=40;tabHeight=14;tabPosition=left;html=1;" parent="5eIUbQXEE4B5QL4xGmfs-1" vertex="1">
          <mxGeometry x="425" y="430" width="70" height="50" as="geometry" />
        </mxCell>
        <mxCell id="W0qF3PEgjTjVfhSSC40t-5" style="edgeStyle=orthogonalEdgeStyle;rounded=0;orthogonalLoop=1;jettySize=auto;html=1;entryX=0.6;entryY=1;entryDx=0;entryDy=0;entryPerimeter=0;" parent="5eIUbQXEE4B5QL4xGmfs-1" source="ILpvyiX-XjAE5GRcZrV8-26" target="Mam_sa4TqZ4yugGMK-YZ-3" edge="1">
          <mxGeometry relative="1" as="geometry" />
        </mxCell>
        <mxCell id="ILpvyiX-XjAE5GRcZrV8-26" value="pub/sub channel" style="outlineConnect=0;fontColor=#232F3E;gradientColor=none;strokeColor=#232F3E;fillColor=#ffffff;dashed=0;verticalLabelPosition=bottom;verticalAlign=top;align=center;html=1;fontSize=12;fontStyle=0;aspect=fixed;shape=mxgraph.aws4.resourceIcon;resIcon=mxgraph.aws4.queue;" parent="5eIUbQXEE4B5QL4xGmfs-1" vertex="1">
          <mxGeometry x="50" y="143.5" width="60" height="60" as="geometry" />
        </mxCell>
        <mxCell id="Mam_sa4TqZ4yugGMK-YZ-0" value="Artifacts&#xa;Service" style="shape=module;align=left;spacingLeft=20;align=center;verticalAlign=top;" parent="5eIUbQXEE4B5QL4xGmfs-1" vertex="1">
          <mxGeometry x="30" y="290" width="100" height="50" as="geometry" />
        </mxCell>
        <mxCell id="Mam_sa4TqZ4yugGMK-YZ-3" value="Events&#xa;Gateway" style="shape=module;align=left;spacingLeft=20;align=center;verticalAlign=top;" parent="5eIUbQXEE4B5QL4xGmfs-1" vertex="1">
          <mxGeometry x="20" y="30" width="100" height="50" as="geometry" />
        </mxCell>
        <mxCell id="Mam_sa4TqZ4yugGMK-YZ-5" value="Resource&#xa;Manager" style="shape=module;align=left;spacingLeft=20;align=center;verticalAlign=top;" parent="5eIUbQXEE4B5QL4xGmfs-1" vertex="1">
          <mxGeometry x="508" y="30" width="100" height="50" as="geometry" />
        </mxCell>
        <mxCell id="mTWpbAFitR0X4Eoo3CnR-5" style="edgeStyle=orthogonalEdgeStyle;rounded=0;orthogonalLoop=1;jettySize=auto;html=1;" parent="5eIUbQXEE4B5QL4xGmfs-1" source="mTWpbAFitR0X4Eoo3CnR-1" target="Mam_sa4TqZ4yugGMK-YZ-5" edge="1">
          <mxGeometry relative="1" as="geometry" />
        </mxCell>
        <mxCell id="mTWpbAFitR0X4Eoo3CnR-1" value="ant&lt;br&gt;registration" style="outlineConnect=0;fontColor=#232F3E;gradientColor=none;strokeColor=#232F3E;fillColor=#ffffff;dashed=0;verticalLabelPosition=bottom;verticalAlign=top;align=center;html=1;fontSize=12;fontStyle=0;aspect=fixed;shape=mxgraph.aws4.resourceIcon;resIcon=mxgraph.aws4.queue;" parent="5eIUbQXEE4B5QL4xGmfs-1" vertex="1">
          <mxGeometry x="528" y="138.5" width="60" height="60" as="geometry" />
        </mxCell>
        <mxCell id="7JIedI8BAxYqHqGPbHID-0" value="db" style="shape=datastore;whiteSpace=wrap;html=1;" parent="5eIUbQXEE4B5QL4xGmfs-1" vertex="1">
          <mxGeometry x="410" y="102.5" width="45" height="30" as="geometry" />
        </mxCell>
        <mxCell id="W0qF3PEgjTjVfhSSC40t-4" style="edgeStyle=orthogonalEdgeStyle;rounded=0;orthogonalLoop=1;jettySize=auto;html=1;" parent="5eIUbQXEE4B5QL4xGmfs-1" source="W0qF3PEgjTjVfhSSC40t-0" target="ILpvyiX-XjAE5GRcZrV8-26" edge="1">
          <mxGeometry relative="1" as="geometry">
            <Array as="points">
              <mxPoint x="210" y="260" />
              <mxPoint x="80" y="260" />
            </Array>
          </mxGeometry>
        </mxCell>
        <mxCell id="W0qF3PEgjTjVfhSSC40t-0" value="Logs&#xa;Streamer" style="shape=module;align=left;spacingLeft=20;align=center;verticalAlign=top;" parent="5eIUbQXEE4B5QL4xGmfs-1" vertex="1">
          <mxGeometry x="160" y="290" width="100" height="50" as="geometry" />
        </mxCell>
      </root>
    </mxGraphModel>
  </diagram>
  <diagram id="caeM5cbKHBbssARQHTB7" name="Page-3">
    <mxGraphModel dx="1773" dy="1796" grid="1" gridSize="10" guides="1" tooltips="1" connect="1" arrows="1" fold="1" page="1" pageScale="1" pageWidth="850" pageHeight="1100" math="0" shadow="0">
      <root>
        <mxCell id="Bg6RmzrcHNG-Q1pyEjyK-0" />
        <mxCell id="Bg6RmzrcHNG-Q1pyEjyK-1" parent="Bg6RmzrcHNG-Q1pyEjyK-0" />
        <mxCell id="jF-DcmZb0dJJheJHoAb6-0" value="" style="rounded=0;whiteSpace=wrap;html=1;" parent="Bg6RmzrcHNG-Q1pyEjyK-1" vertex="1">
          <mxGeometry x="-830" y="-1070" width="600" height="470" as="geometry" />
        </mxCell>
        <mxCell id="jF-DcmZb0dJJheJHoAb6-9" value="Job Definition" style="text;html=1;strokeColor=none;fillColor=none;align=center;verticalAlign=middle;whiteSpace=wrap;rounded=0;" parent="Bg6RmzrcHNG-Q1pyEjyK-1" vertex="1">
          <mxGeometry x="-617" y="-938.5" width="90" height="20" as="geometry" />
        </mxCell>
        <mxCell id="DCuZUXLK-o9kZ2-iuY6J-1" style="edgeStyle=orthogonalEdgeStyle;rounded=0;orthogonalLoop=1;jettySize=auto;html=1;" edge="1" parent="Bg6RmzrcHNG-Q1pyEjyK-1" source="jF-DcmZb0dJJheJHoAb6-24" target="jF-DcmZb0dJJheJHoAb6-48">
          <mxGeometry relative="1" as="geometry">
            <Array as="points">
              <mxPoint x="-758" y="-780" />
              <mxPoint x="-577" y="-780" />
            </Array>
          </mxGeometry>
        </mxCell>
        <mxCell id="jF-DcmZb0dJJheJHoAb6-24" value="" style="aspect=fixed;html=1;points=[];align=center;image;fontSize=12;image=img/lib/mscae/Docker.svg;" parent="Bg6RmzrcHNG-Q1pyEjyK-1" vertex="1">
          <mxGeometry x="-776.59" y="-835" width="36.59" height="30" as="geometry" />
        </mxCell>
        <mxCell id="DCuZUXLK-o9kZ2-iuY6J-6" style="edgeStyle=orthogonalEdgeStyle;rounded=0;orthogonalLoop=1;jettySize=auto;html=1;" edge="1" parent="Bg6RmzrcHNG-Q1pyEjyK-1" source="jF-DcmZb0dJJheJHoAb6-25" target="jF-DcmZb0dJJheJHoAb6-48">
          <mxGeometry relative="1" as="geometry">
            <Array as="points">
              <mxPoint x="-637" y="-780" />
              <mxPoint x="-577" y="-780" />
            </Array>
          </mxGeometry>
        </mxCell>
        <mxCell id="jF-DcmZb0dJJheJHoAb6-25" value="" style="html=1;dashed=0;whitespace=wrap;fillColor=#2875E2;strokeColor=#ffffff;points=[[0.005,0.63,0],[0.1,0.2,0],[0.9,0.2,0],[0.5,0,0],[0.995,0.63,0],[0.72,0.99,0],[0.5,1,0],[0.28,0.99,0]];shape=mxgraph.kubernetes.icon;prIcon=pod" parent="Bg6RmzrcHNG-Q1pyEjyK-1" vertex="1">
          <mxGeometry x="-657" y="-840" width="40" height="40" as="geometry" />
        </mxCell>
        <mxCell id="DCuZUXLK-o9kZ2-iuY6J-5" style="edgeStyle=orthogonalEdgeStyle;rounded=0;orthogonalLoop=1;jettySize=auto;html=1;" edge="1" parent="Bg6RmzrcHNG-Q1pyEjyK-1" source="jF-DcmZb0dJJheJHoAb6-27" target="jF-DcmZb0dJJheJHoAb6-48">
          <mxGeometry relative="1" as="geometry">
            <Array as="points">
              <mxPoint x="-375" y="-780" />
              <mxPoint x="-577" y="-780" />
            </Array>
          </mxGeometry>
        </mxCell>
        <mxCell id="jF-DcmZb0dJJheJHoAb6-27" value="" style="outlineConnect=0;fontColor=#232F3E;gradientColor=none;fillColor=#277116;strokeColor=none;dashed=0;verticalLabelPosition=bottom;verticalAlign=top;align=center;html=1;fontSize=12;fontStyle=0;aspect=fixed;pointerEvents=1;shape=mxgraph.aws4.http2_protocol;" parent="Bg6RmzrcHNG-Q1pyEjyK-1" vertex="1">
          <mxGeometry x="-390" y="-835" width="30" height="30" as="geometry" />
        </mxCell>
        <mxCell id="DCuZUXLK-o9kZ2-iuY6J-8" style="edgeStyle=orthogonalEdgeStyle;rounded=0;orthogonalLoop=1;jettySize=auto;html=1;" edge="1" parent="Bg6RmzrcHNG-Q1pyEjyK-1" source="jF-DcmZb0dJJheJHoAb6-29" target="jF-DcmZb0dJJheJHoAb6-48">
          <mxGeometry relative="1" as="geometry">
            <Array as="points">
              <mxPoint x="-513" y="-780" />
              <mxPoint x="-577" y="-780" />
            </Array>
          </mxGeometry>
        </mxCell>
        <mxCell id="jF-DcmZb0dJJheJHoAb6-29" value="shell" style="html=1;fillColor=#5184F3;strokeColor=none;verticalAlign=top;labelPosition=center;verticalLabelPosition=bottom;align=center;spacingTop=-6;fontSize=11;fontStyle=1;fontColor=#999999;shape=mxgraph.gcp2.hexIcon;prIcon=placeholder" parent="Bg6RmzrcHNG-Q1pyEjyK-1" vertex="1">
          <mxGeometry x="-538" y="-845" width="49.25" height="40" as="geometry" />
        </mxCell>
        <mxCell id="jF-DcmZb0dJJheJHoAb6-30" value="Task-A" style="verticalLabelPosition=bottom;html=1;verticalAlign=top;align=center;strokeColor=none;fillColor=#00BEF2;shape=mxgraph.azure.startup_task;pointerEvents=1;" parent="Bg6RmzrcHNG-Q1pyEjyK-1" vertex="1">
          <mxGeometry x="-783.3" y="-910" width="50" height="50" as="geometry" />
        </mxCell>
        <mxCell id="jF-DcmZb0dJJheJHoAb6-32" value="" style="outlineConnect=0;dashed=0;verticalLabelPosition=bottom;verticalAlign=top;align=center;html=1;shape=mxgraph.aws3.import_export;fillColor=#E05243;gradientColor=none;" parent="Bg6RmzrcHNG-Q1pyEjyK-1" vertex="1">
          <mxGeometry x="-720" y="-910" width="45.5" height="50" as="geometry" />
        </mxCell>
        <mxCell id="jF-DcmZb0dJJheJHoAb6-35" style="edgeStyle=orthogonalEdgeStyle;rounded=0;orthogonalLoop=1;jettySize=auto;html=1;" parent="Bg6RmzrcHNG-Q1pyEjyK-1" source="jF-DcmZb0dJJheJHoAb6-34" target="jF-DcmZb0dJJheJHoAb6-30" edge="1">
          <mxGeometry relative="1" as="geometry" />
        </mxCell>
        <mxCell id="jF-DcmZb0dJJheJHoAb6-43" style="edgeStyle=orthogonalEdgeStyle;rounded=0;orthogonalLoop=1;jettySize=auto;html=1;entryX=0.5;entryY=0;entryDx=0;entryDy=0;entryPerimeter=0;" parent="Bg6RmzrcHNG-Q1pyEjyK-1" source="jF-DcmZb0dJJheJHoAb6-34" target="jF-DcmZb0dJJheJHoAb6-37" edge="1">
          <mxGeometry relative="1" as="geometry" />
        </mxCell>
        <mxCell id="jF-DcmZb0dJJheJHoAb6-44" style="edgeStyle=orthogonalEdgeStyle;rounded=0;orthogonalLoop=1;jettySize=auto;html=1;entryX=0.5;entryY=0;entryDx=0;entryDy=0;entryPerimeter=0;" parent="Bg6RmzrcHNG-Q1pyEjyK-1" source="jF-DcmZb0dJJheJHoAb6-34" target="jF-DcmZb0dJJheJHoAb6-41" edge="1">
          <mxGeometry relative="1" as="geometry" />
        </mxCell>
        <mxCell id="jF-DcmZb0dJJheJHoAb6-47" style="edgeStyle=orthogonalEdgeStyle;rounded=0;orthogonalLoop=1;jettySize=auto;html=1;entryX=0.5;entryY=0;entryDx=0;entryDy=0;entryPerimeter=0;" parent="Bg6RmzrcHNG-Q1pyEjyK-1" target="jF-DcmZb0dJJheJHoAb6-39" edge="1">
          <mxGeometry relative="1" as="geometry">
            <mxPoint x="-540" y="-973" as="sourcePoint" />
          </mxGeometry>
        </mxCell>
        <mxCell id="jF-DcmZb0dJJheJHoAb6-34" value="" style="aspect=fixed;html=1;points=[];align=center;image;fontSize=12;image=img/lib/azure2/general/Workflow.svg;" parent="Bg6RmzrcHNG-Q1pyEjyK-1" vertex="1">
          <mxGeometry x="-606" y="-1008.5" width="68" height="70" as="geometry" />
        </mxCell>
        <mxCell id="jF-DcmZb0dJJheJHoAb6-37" value="Task-B" style="verticalLabelPosition=bottom;html=1;verticalAlign=top;align=center;strokeColor=#6c8ebf;fillColor=#dae8fc;shape=mxgraph.azure.startup_task;pointerEvents=1;" parent="Bg6RmzrcHNG-Q1pyEjyK-1" vertex="1">
          <mxGeometry x="-662" y="-910" width="50" height="50" as="geometry" />
        </mxCell>
        <mxCell id="jF-DcmZb0dJJheJHoAb6-38" value="" style="outlineConnect=0;dashed=0;verticalLabelPosition=bottom;verticalAlign=top;align=center;html=1;shape=mxgraph.aws3.import_export;fillColor=#E05243;gradientColor=none;" parent="Bg6RmzrcHNG-Q1pyEjyK-1" vertex="1">
          <mxGeometry x="-594.75" y="-910" width="45.5" height="50" as="geometry" />
        </mxCell>
        <mxCell id="jF-DcmZb0dJJheJHoAb6-39" value="Task-C" style="verticalLabelPosition=bottom;html=1;verticalAlign=top;align=center;strokeColor=#82b366;fillColor=#d5e8d4;shape=mxgraph.azure.startup_task;pointerEvents=1;" parent="Bg6RmzrcHNG-Q1pyEjyK-1" vertex="1">
          <mxGeometry x="-538" y="-910" width="50" height="50" as="geometry" />
        </mxCell>
        <mxCell id="jF-DcmZb0dJJheJHoAb6-40" value="" style="outlineConnect=0;dashed=0;verticalLabelPosition=bottom;verticalAlign=top;align=center;html=1;shape=mxgraph.aws3.import_export;fillColor=#E05243;gradientColor=none;" parent="Bg6RmzrcHNG-Q1pyEjyK-1" vertex="1">
          <mxGeometry x="-470" y="-910" width="45.5" height="50" as="geometry" />
        </mxCell>
        <mxCell id="jF-DcmZb0dJJheJHoAb6-41" value="Task-D" style="verticalLabelPosition=bottom;html=1;verticalAlign=top;align=center;strokeColor=#82b366;fillColor=#d5e8d4;shape=mxgraph.azure.startup_task;pointerEvents=1;" parent="Bg6RmzrcHNG-Q1pyEjyK-1" vertex="1">
          <mxGeometry x="-400" y="-910" width="50" height="50" as="geometry" />
        </mxCell>
        <mxCell id="jF-DcmZb0dJJheJHoAb6-48" value="Artifacts Store" style="points=[];aspect=fixed;html=1;align=center;shadow=0;dashed=0;image;image=img/lib/allied_telesis/storage/Datacenter_Server_Rack_Storage_Unit_Small.svg;" parent="Bg6RmzrcHNG-Q1pyEjyK-1" vertex="1">
          <mxGeometry x="-615.4" y="-750" width="77.4" height="67.2" as="geometry" />
        </mxCell>
      </root>
    </mxGraphModel>
  </diagram>
  <diagram id="pWJUYexN3YuYZrXCE31A" name="Page-4">
    <mxGraphModel dx="723" dy="403" grid="1" gridSize="10" guides="1" tooltips="1" connect="1" arrows="1" fold="1" page="1" pageScale="1" pageWidth="850" pageHeight="1100" math="0" shadow="0">
      <root>
        <mxCell id="Hdz8NdmrYdV4466tFuND-0" />
        <mxCell id="Hdz8NdmrYdV4466tFuND-1" parent="Hdz8NdmrYdV4466tFuND-0" />
      </root>
    </mxGraphModel>
  </diagram>
</mxfile>
